<?xml version="1.0" encoding="utf-8"?>
<!-- Generator: Adobe Illustrator 22.1.0, SVG Export Plug-In . SVG Version: 6.00 Build 0)  -->
<svg version="1.1" id="Layer_1" xmlns="http://www.w3.org/2000/svg" xmlns:xlink="http://www.w3.org/1999/xlink" x="0px" y="0px"
	 viewBox="0 0 160 160" style="enable-background:new 0 0 160 160;" xml:space="preserve">
<style type="text/css">
	.st0{fill:#010101;}
</style>
<g>
	<g>
		<path class="st0" d="M64.4,16.6c8.1-3.7,17.4-4.5,26.1-2.6c6.5,1.4,12.6,4.6,17.1,9.6c4.4,4.8,7.1,11.1,7.8,17.6
			c0.4,3.4,0.2,6.8-0.4,10.2c3.4,0.4,6.6,2.2,8.3,5.2c1.9,3.2,2.1,7.2,1.8,10.8c-0.3,4-1.1,7.9-1.6,11.9c-1.2,10-2.3,20-3.5,29.9
			c-0.6,5.6-1.4,11.3-1.8,16.9c-0.5,4.3-1.1,8.8-3.7,12.4c-2,2.8-5.6,4.3-9,4.4c-12.1,0-24.3,0-36.4,0c-4.5,0-9,0.3-13.4,0
			c-3.1-0.3-6.2-1.7-8.1-4.2c-1.7-2.1-2.7-4.8-3-7.4c-3-21.9-5.9-43.8-8.3-65.7c-0.4-3.4,0.3-7,2.4-9.8c1.9-2.6,5.1-4.2,8.3-4.4
			c-1.1-7.1-0.4-14.6,2.9-21C52.9,24.2,58.3,19.4,64.4,16.6z M67.9,21c-5.5,2.3-10.5,6.4-13.2,11.8c-2.9,5.6-3.4,12.2-2.4,18.4
			c19.1,0,38.1,0,57.2,0c0.6-2.5,0.9-5.1,0.9-7.7c-0.1-5.5-1.9-11-5.5-15.2c-3.6-4.5-8.9-7.4-14.5-8.8C83.1,17.6,75,18,67.9,21z
			 M53.6,56.5c0.5,1.7,1.1,3.3,1.8,4.9c0.8-1.4,3.1-1.8,4.1-0.4c0.9,1.2,0.5,2.8,0,4c-1.5,3.6-6.3,5.3-9.8,3.7c-0.9-0.4-1.8-1-2-2
			c-0.4-1.6,1-3.4,2.7-3.1c-1-2.2-1.8-4.6-2.5-6.9c-1.8,0.1-3.7,0.8-4.8,2.3c-1.2,1.5-1.5,3.6-1.6,5.5c0,3.4,0.7,6.7,1.2,10.1
			c1.7,13.3,3.4,26.5,5,39.8c0.6,5.2,1.4,10.4,1.8,15.6c0.2,2.3,0.8,4.8,2.8,6.2c2.4,1.7,5.5,1.5,8.3,1.4c14.9,0,29.7,0,44.6,0
			c1.6,0,3.3-0.5,4.5-1.6c1-0.9,1.6-2.1,1.9-3.4c0.6-2,0.7-4.1,0.9-6.2c1.7-14.6,3.4-29.3,5.1-43.9c0.6-5.3,1.2-10.7,1.9-16
			c0.3-2.3,0.5-4.8-0.8-6.9c-1.1-1.8-3.3-2.6-5.4-2.9c-1,2.7-2.3,5.4-3.9,7.7c1.7-0.1,3,1.7,2.5,3.3c-0.3,1.1-1.5,1.7-2.5,2.1
			c-3.6,1.3-8.2-0.6-9.4-4.3c-0.4-1.2-0.7-2.8,0.4-3.8c1.1-1.2,3.2-0.7,4,0.7c1.2-1.9,2.3-3.8,3.2-5.8c-8.3,0-16.6,0-24.9,0
			C73.1,56.7,63.3,56.4,53.6,56.5z"/>
	</g>
	<path class="st0" d="M75.8,71.8c9.8-2.3,20.6,1.1,27.6,8.2c-2.4,3.3-4.8,6.6-7.2,9.9c-2-1.4-4-2.7-6.2-3.6c-2.4-1-5.1-1.4-7.7-1.3
		c-1.9,0-4.1,0.2-5.5,1.6c-1.3,1.2-1.1,3.7,0.5,4.5c1.9,1,4.1,1,6.2,1.1c4,0.2,8,1.1,11.5,2.9c1.6,0.8,3.1,1.8,4.3,3.2
		c1.8,2.1,2.6,4.8,2.9,7.4c0.4,4.4-0.5,9-3,12.7c-2.6,4.1-6.9,6.9-11.5,8.2c-4.7,1.3-9.6,1-14.3-0.2c-5.5-1.5-10.8-4.1-14.7-8.2
		c2.5-3.4,4.9-6.8,7.4-10.2c3.5,2.6,7.5,4.6,11.8,5.4c2,0.3,4.2,0.5,6.2-0.1c1.2-0.3,2.4-1,3.1-2c0.5-0.9,0.7-2.2,0-3.1
		c-0.5-0.8-1.4-1.2-2.3-1.4c-2.7-0.8-5.4-1-8.2-1.4c-4.2-0.7-8.4-2-11.5-4.9c-2.3-2.2-3.6-5.3-3.9-8.5c-0.4-4.2,0.4-8.7,2.8-12.3
		C66.8,75.7,71.1,73,75.8,71.8z"/>
</g>
</svg>
